<svg width="372" height="104" viewBox="0 0 372 104" fill="none" xmlns="http://www.w3.org/2000/svg">
<path d="M301.336 85.3077L272.423 48.6199L286.048 26.5824C299.732 23.602 328 17.672 331.599 17.7949C335.198 17.9178 350.278 27.4712 357.368 32.2325L358.077 54.4416L344.091 82.5502L301.336 85.3077Z" fill="black"/>
<path d="M317.05 0C287.214 0 263 23.0787 263 51.515C263 79.9513 287.214 103.03 317.05 103.03C346.885 103.03 371.099 79.9513 371.099 51.515C371.099 23.0787 346.885 0 317.05 0ZM335.535 75.1089C334.724 76.1907 333.481 76.7059 332.238 76.7059C331.427 76.7059 330.616 76.4483 329.859 75.9847C321.536 70.318 310.888 69.0816 301.375 72.6362C299.321 73.4089 296.943 72.4301 296.132 70.4725C295.322 68.4635 296.349 66.2483 298.403 65.4756C310.51 60.8908 324.022 62.4877 334.562 69.6998C336.454 70.9877 336.832 73.4089 335.535 75.1089ZM341.48 60.7362C340.669 61.818 339.426 62.3332 338.183 62.3332C337.372 62.3332 336.562 62.0756 335.805 61.612C324.346 53.7817 309.699 52.0817 296.565 57.0271C294.511 57.7998 292.133 56.8211 291.322 54.8635C290.511 52.8544 291.538 50.6393 293.592 49.8665C309.267 43.9423 326.833 46.0029 340.507 55.3786C342.345 56.615 342.777 59.0362 341.48 60.7362ZM349.966 46.9302C349.155 48.012 347.912 48.5271 346.669 48.5271C345.858 48.5271 345.047 48.2696 344.291 47.8059C328.184 36.7817 307.537 34.3605 289.16 41.3666C287.052 42.1393 284.728 41.1604 283.917 39.2029C283.106 37.2453 284.133 34.9787 286.187 34.206C307.159 26.2727 330.67 29.003 349.047 41.5726C350.885 42.7575 351.317 45.1787 349.966 46.9302Z" fill="#22F241"/>
<path d="M25.1172 62.0938V68H7.89062V62.0938H25.1172ZM10.4922 33.875V68H2.85156V33.875H10.4922ZM27.4375 55.5781V55.0859C27.4375 53.2266 27.7031 51.5156 28.2344 49.9531C28.7656 48.375 29.5469 47.0078 30.5781 45.8516C31.6094 44.6953 32.875 43.7969 34.375 43.1562C35.875 42.5 37.5938 42.1719 39.5312 42.1719C41.5 42.1719 43.2344 42.5 44.7344 43.1562C46.25 43.7969 47.5234 44.6953 48.5547 45.8516C49.5859 47.0078 50.3672 48.375 50.8984 49.9531C51.4297 51.5156 51.6953 53.2266 51.6953 55.0859V55.5781C51.6953 57.4219 51.4297 59.1328 50.8984 60.7109C50.3672 62.2734 49.5859 63.6406 48.5547 64.8125C47.5234 65.9688 46.2578 66.8672 44.7578 67.5078C43.2578 68.1484 41.5312 68.4688 39.5781 68.4688C37.6406 68.4688 35.9141 68.1484 34.3984 67.5078C32.8828 66.8672 31.6094 65.9688 30.5781 64.8125C29.5469 63.6406 28.7656 62.2734 28.2344 60.7109C27.7031 59.1328 27.4375 57.4219 27.4375 55.5781ZM34.7734 55.0859V55.5781C34.7734 56.5781 34.8516 57.5156 35.0078 58.3906C35.1797 59.2656 35.4531 60.0312 35.8281 60.6875C36.2031 61.3438 36.6953 61.8594 37.3047 62.2344C37.9297 62.5938 38.6875 62.7734 39.5781 62.7734C40.4688 62.7734 41.2188 62.5938 41.8281 62.2344C42.4375 61.8594 42.9297 61.3438 43.3047 60.6875C43.6797 60.0312 43.9453 59.2656 44.1016 58.3906C44.2734 57.5156 44.3594 56.5781 44.3594 55.5781V55.0859C44.3594 54.1016 44.2734 53.1797 44.1016 52.3203C43.9453 51.4453 43.6797 50.6719 43.3047 50C42.9297 49.3281 42.4297 48.8047 41.8047 48.4297C41.1953 48.0547 40.4375 47.8672 39.5312 47.8672C38.6562 47.8672 37.9141 48.0547 37.3047 48.4297C36.6953 48.8047 36.2031 49.3281 35.8281 50C35.4531 50.6719 35.1797 51.4453 35.0078 52.3203C34.8516 53.1797 34.7734 54.1016 34.7734 55.0859ZM71.5234 42.6406H78.1797V67.0859C78.1797 69.4141 77.6484 71.3906 76.5859 73.0156C75.5391 74.6406 74.0781 75.875 72.2031 76.7188C70.3281 77.5625 68.1328 77.9844 65.6172 77.9844C64.5234 77.9844 63.3828 77.8359 62.1953 77.5391C61.0078 77.2578 59.8906 76.8281 58.8438 76.25C57.7969 75.6875 56.9219 74.9688 56.2188 74.0938L59.3359 69.7812C60.0547 70.5938 60.9141 71.25 61.9141 71.75C62.9141 72.2656 64.0547 72.5234 65.3359 72.5234C66.5078 72.5234 67.5 72.3125 68.3125 71.8906C69.125 71.4688 69.7422 70.8516 70.1641 70.0391C70.6016 69.2266 70.8203 68.2422 70.8203 67.0859V48.5703L71.5234 42.6406ZM54.5781 55.625V55.1328C54.5781 53.2109 54.8125 51.4609 55.2812 49.8828C55.75 48.2891 56.4297 46.9219 57.3203 45.7812C58.2266 44.625 59.3125 43.7344 60.5781 43.1094C61.8594 42.4844 63.2969 42.1719 64.8906 42.1719C66.6094 42.1719 68.0312 42.5 69.1562 43.1562C70.2812 43.7969 71.1953 44.7031 71.8984 45.875C72.6016 47.0312 73.1562 48.3984 73.5625 49.9766C73.9688 51.5391 74.2969 53.2344 74.5469 55.0625V55.9062C74.2969 57.6562 73.9375 59.2891 73.4688 60.8047C73 62.3203 72.3906 63.6562 71.6406 64.8125C70.8906 65.9531 69.9531 66.8516 68.8281 67.5078C67.7188 68.1484 66.3906 68.4688 64.8438 68.4688C63.2656 68.4688 61.8438 68.1484 60.5781 67.5078C59.3125 66.8672 58.2266 65.9688 57.3203 64.8125C56.4297 63.6562 55.75 62.2969 55.2812 60.7344C54.8125 59.1719 54.5781 57.4688 54.5781 55.625ZM61.8906 55.1328V55.625C61.8906 56.625 61.9844 57.5547 62.1719 58.4141C62.375 59.2734 62.6719 60.0312 63.0625 60.6875C63.4688 61.3438 63.9688 61.8594 64.5625 62.2344C65.1719 62.5938 65.8828 62.7734 66.6953 62.7734C67.8828 62.7734 68.8438 62.5234 69.5781 62.0234C70.3281 61.5078 70.875 60.7969 71.2188 59.8906C71.5781 58.9844 71.7656 57.9297 71.7812 56.7266V54.2656C71.7812 53.2656 71.6797 52.3672 71.4766 51.5703C71.2734 50.7734 70.9688 50.1016 70.5625 49.5547C70.1719 49.0078 69.6562 48.5938 69.0156 48.3125C68.3906 48.0156 67.6328 47.8672 66.7422 47.8672C65.9453 47.8672 65.2422 48.0547 64.6328 48.4297C64.0234 48.7891 63.5156 49.2969 63.1094 49.9531C62.7031 50.6094 62.3984 51.3828 62.1953 52.2734C61.9922 53.1484 61.8906 54.1016 61.8906 55.1328ZM102.719 42.6406V68H95.3828V42.6406H102.719ZM94.9375 36.0781C94.9375 35.0156 95.3125 34.1484 96.0625 33.4766C96.8125 32.7891 97.7969 32.4453 99.0156 32.4453C100.234 32.4453 101.219 32.7891 101.969 33.4766C102.734 34.1484 103.117 35.0156 103.117 36.0781C103.117 37.125 102.734 37.9922 101.969 38.6797C101.219 39.3516 100.234 39.6875 99.0156 39.6875C97.7969 39.6875 96.8125 39.3516 96.0625 38.6797C95.3125 37.9922 94.9375 37.125 94.9375 36.0781ZM115.164 48.0547V68H107.828V42.6406H114.719L115.164 48.0547ZM114.203 54.4297L112.375 54.4766C112.375 52.5703 112.609 50.8594 113.078 49.3438C113.547 47.8281 114.211 46.5391 115.07 45.4766C115.945 44.3984 116.984 43.5781 118.188 43.0156C119.406 42.4531 120.75 42.1719 122.219 42.1719C123.406 42.1719 124.492 42.3438 125.477 42.6875C126.461 43.0312 127.305 43.5859 128.008 44.3516C128.727 45.1016 129.273 46.1016 129.648 47.3516C130.023 48.5859 130.211 50.1094 130.211 51.9219V68H122.852V51.8984C122.852 50.8359 122.703 50.0156 122.406 49.4375C122.109 48.8594 121.672 48.4531 121.094 48.2188C120.531 47.9844 119.844 47.8672 119.031 47.8672C118.172 47.8672 117.438 48.0391 116.828 48.3828C116.219 48.7109 115.719 49.1719 115.328 49.7656C114.938 50.3594 114.648 51.0547 114.461 51.8516C114.289 52.6484 114.203 53.5078 114.203 54.4297ZM154.422 60.9453L159.391 42.6406H164.008L162.438 50.7969L157.469 68H153.695L154.422 60.9453ZM152.148 42.6406L155.477 60.875L155.828 68H151.328L145.094 42.6406H152.148ZM168.508 60.5234L171.812 42.6406H178.867L172.68 68H168.18L168.508 60.5234ZM164.57 42.6406L169.586 60.8516L170.312 68H166.492L161.57 50.8203L160.07 42.6406H164.57ZM189.719 42.6406V68H182.383V42.6406H189.719ZM181.938 36.0781C181.938 35.0156 182.312 34.1484 183.062 33.4766C183.812 32.7891 184.797 32.4453 186.016 32.4453C187.234 32.4453 188.219 32.7891 188.969 33.4766C189.734 34.1484 190.117 35.0156 190.117 36.0781C190.117 37.125 189.734 37.9922 188.969 38.6797C188.219 39.3516 187.234 39.6875 186.016 39.6875C184.797 39.6875 183.812 39.3516 183.062 38.6797C182.312 37.9922 181.938 37.125 181.938 36.0781ZM207.883 42.6406V47.7734H192.836V42.6406H207.883ZM196.281 36.3594H203.617V60.0547C203.617 60.7578 203.703 61.2969 203.875 61.6719C204.047 62.0469 204.328 62.3125 204.719 62.4688C205.109 62.6094 205.609 62.6797 206.219 62.6797C206.656 62.6797 207.031 62.6641 207.344 62.6328C207.656 62.6016 207.945 62.5625 208.211 62.5156V67.8125C207.586 68.0156 206.922 68.1719 206.219 68.2812C205.516 68.4062 204.75 68.4688 203.922 68.4688C202.344 68.4688 200.977 68.2109 199.82 67.6953C198.68 67.1797 197.805 66.3672 197.195 65.2578C196.586 64.1328 196.281 62.6719 196.281 60.875V36.3594ZM218.547 32V68H211.234V32H218.547ZM217.586 54.4297L215.758 54.4766C215.758 52.6953 215.977 51.0625 216.414 49.5781C216.867 48.0781 217.508 46.7734 218.336 45.6641C219.164 44.5547 220.156 43.6953 221.312 43.0859C222.484 42.4766 223.773 42.1719 225.18 42.1719C226.43 42.1719 227.57 42.3516 228.602 42.7109C229.633 43.0703 230.523 43.6406 231.273 44.4219C232.023 45.2031 232.602 46.2266 233.008 47.4922C233.414 48.7578 233.617 50.2969 233.617 52.1094V68H226.258V52.0625C226.258 50.9844 226.102 50.1406 225.789 49.5312C225.492 48.9219 225.055 48.4922 224.477 48.2422C223.914 47.9922 223.227 47.8672 222.414 47.8672C221.461 47.8672 220.672 48.0391 220.047 48.3828C219.422 48.7109 218.93 49.1719 218.57 49.7656C218.211 50.3594 217.953 51.0547 217.797 51.8516C217.656 52.6484 217.586 53.5078 217.586 54.4297Z" fill="black"/>
</svg>
