<svg width="386" height="104" viewBox="0 0 386 104" fill="none" xmlns="http://www.w3.org/2000/svg">
<path d="M315.336 85.3077L286.423 48.6199L300.048 26.5824C313.732 23.602 342 17.672 345.599 17.7949C349.198 17.9178 364.278 27.4712 371.368 32.2325L372.077 54.4416L358.091 82.5502L315.336 85.3077Z" fill="black"/>
<path d="M331.05 0C301.214 0 277 23.0787 277 51.515C277 79.9513 301.214 103.03 331.05 103.03C360.885 103.03 385.099 79.9513 385.099 51.515C385.099 23.0787 360.885 0 331.05 0ZM349.535 75.1089C348.724 76.1907 347.481 76.7059 346.238 76.7059C345.427 76.7059 344.616 76.4483 343.859 75.9847C335.536 70.318 324.888 69.0816 315.375 72.6362C313.321 73.4089 310.943 72.4301 310.132 70.4725C309.322 68.4635 310.349 66.2483 312.403 65.4756C324.51 60.8908 338.022 62.4877 348.562 69.6998C350.454 70.9877 350.832 73.4089 349.535 75.1089ZM355.48 60.7362C354.669 61.818 353.426 62.3332 352.183 62.3332C351.372 62.3332 350.562 62.0756 349.805 61.612C338.346 53.7817 323.699 52.0817 310.565 57.0271C308.511 57.7998 306.133 56.8211 305.322 54.8635C304.511 52.8544 305.538 50.6393 307.592 49.8665C323.267 43.9423 340.833 46.0029 354.507 55.3786C356.345 56.615 356.777 59.0362 355.48 60.7362ZM363.966 46.9302C363.155 48.012 361.912 48.5271 360.669 48.5271C359.858 48.5271 359.047 48.2696 358.291 47.8059C342.184 36.7817 321.537 34.3605 303.16 41.3666C301.052 42.1393 298.728 41.1604 297.917 39.2029C297.106 37.2453 298.133 34.9787 300.187 34.206C321.159 26.2727 344.67 29.003 363.047 41.5726C364.885 42.7575 365.317 45.1787 363.966 46.9302Z" fill="#22F241"/>
<path d="M25.2969 62.0938V68H8.07031V62.0938H25.2969ZM10.6719 33.875V68H3.03125V33.875H10.6719ZM27.6172 55.5781V55.0859C27.6172 53.2266 27.8828 51.5156 28.4141 49.9531C28.9453 48.375 29.7266 47.0078 30.7578 45.8516C31.7891 44.6953 33.0547 43.7969 34.5547 43.1562C36.0547 42.5 37.7734 42.1719 39.7109 42.1719C41.6797 42.1719 43.4141 42.5 44.9141 43.1562C46.4297 43.7969 47.7031 44.6953 48.7344 45.8516C49.7656 47.0078 50.5469 48.375 51.0781 49.9531C51.6094 51.5156 51.875 53.2266 51.875 55.0859V55.5781C51.875 57.4219 51.6094 59.1328 51.0781 60.7109C50.5469 62.2734 49.7656 63.6406 48.7344 64.8125C47.7031 65.9688 46.4375 66.8672 44.9375 67.5078C43.4375 68.1484 41.7109 68.4688 39.7578 68.4688C37.8203 68.4688 36.0938 68.1484 34.5781 67.5078C33.0625 66.8672 31.7891 65.9688 30.7578 64.8125C29.7266 63.6406 28.9453 62.2734 28.4141 60.7109C27.8828 59.1328 27.6172 57.4219 27.6172 55.5781ZM34.9531 55.0859V55.5781C34.9531 56.5781 35.0312 57.5156 35.1875 58.3906C35.3594 59.2656 35.6328 60.0312 36.0078 60.6875C36.3828 61.3438 36.875 61.8594 37.4844 62.2344C38.1094 62.5938 38.8672 62.7734 39.7578 62.7734C40.6484 62.7734 41.3984 62.5938 42.0078 62.2344C42.6172 61.8594 43.1094 61.3438 43.4844 60.6875C43.8594 60.0312 44.125 59.2656 44.2812 58.3906C44.4531 57.5156 44.5391 56.5781 44.5391 55.5781V55.0859C44.5391 54.1016 44.4531 53.1797 44.2812 52.3203C44.125 51.4453 43.8594 50.6719 43.4844 50C43.1094 49.3281 42.6094 48.8047 41.9844 48.4297C41.375 48.0547 40.6172 47.8672 39.7109 47.8672C38.8359 47.8672 38.0938 48.0547 37.4844 48.4297C36.875 48.8047 36.3828 49.3281 36.0078 50C35.6328 50.6719 35.3594 51.4453 35.1875 52.3203C35.0312 53.1797 34.9531 54.1016 34.9531 55.0859ZM71.7031 42.6406H78.3594V67.0859C78.3594 69.4141 77.8281 71.3906 76.7656 73.0156C75.7188 74.6406 74.2578 75.875 72.3828 76.7188C70.5078 77.5625 68.3125 77.9844 65.7969 77.9844C64.7031 77.9844 63.5625 77.8359 62.375 77.5391C61.1875 77.2578 60.0703 76.8281 59.0234 76.25C57.9766 75.6875 57.1016 74.9688 56.3984 74.0938L59.5156 69.7812C60.2344 70.5938 61.0938 71.25 62.0938 71.75C63.0938 72.2656 64.2344 72.5234 65.5156 72.5234C66.6875 72.5234 67.6797 72.3125 68.4922 71.8906C69.3047 71.4688 69.9219 70.8516 70.3438 70.0391C70.7812 69.2266 71 68.2422 71 67.0859V48.5703L71.7031 42.6406ZM54.7578 55.625V55.1328C54.7578 53.2109 54.9922 51.4609 55.4609 49.8828C55.9297 48.2891 56.6094 46.9219 57.5 45.7812C58.4062 44.625 59.4922 43.7344 60.7578 43.1094C62.0391 42.4844 63.4766 42.1719 65.0703 42.1719C66.7891 42.1719 68.2109 42.5 69.3359 43.1562C70.4609 43.7969 71.375 44.7031 72.0781 45.875C72.7812 47.0312 73.3359 48.3984 73.7422 49.9766C74.1484 51.5391 74.4766 53.2344 74.7266 55.0625V55.9062C74.4766 57.6562 74.1172 59.2891 73.6484 60.8047C73.1797 62.3203 72.5703 63.6562 71.8203 64.8125C71.0703 65.9531 70.1328 66.8516 69.0078 67.5078C67.8984 68.1484 66.5703 68.4688 65.0234 68.4688C63.4453 68.4688 62.0234 68.1484 60.7578 67.5078C59.4922 66.8672 58.4062 65.9688 57.5 64.8125C56.6094 63.6562 55.9297 62.2969 55.4609 60.7344C54.9922 59.1719 54.7578 57.4688 54.7578 55.625ZM62.0703 55.1328V55.625C62.0703 56.625 62.1641 57.5547 62.3516 58.4141C62.5547 59.2734 62.8516 60.0312 63.2422 60.6875C63.6484 61.3438 64.1484 61.8594 64.7422 62.2344C65.3516 62.5938 66.0625 62.7734 66.875 62.7734C68.0625 62.7734 69.0234 62.5234 69.7578 62.0234C70.5078 61.5078 71.0547 60.7969 71.3984 59.8906C71.7578 58.9844 71.9453 57.9297 71.9609 56.7266V54.2656C71.9609 53.2656 71.8594 52.3672 71.6562 51.5703C71.4531 50.7734 71.1484 50.1016 70.7422 49.5547C70.3516 49.0078 69.8359 48.5938 69.1953 48.3125C68.5703 48.0156 67.8125 47.8672 66.9219 47.8672C66.125 47.8672 65.4219 48.0547 64.8125 48.4297C64.2031 48.7891 63.6953 49.2969 63.2891 49.9531C62.8828 50.6094 62.5781 51.3828 62.375 52.2734C62.1719 53.1484 62.0703 54.1016 62.0703 55.1328ZM99.2188 42.6406H105.875V67.0859C105.875 69.4141 105.344 71.3906 104.281 73.0156C103.234 74.6406 101.773 75.875 99.8984 76.7188C98.0234 77.5625 95.8281 77.9844 93.3125 77.9844C92.2188 77.9844 91.0781 77.8359 89.8906 77.5391C88.7031 77.2578 87.5859 76.8281 86.5391 76.25C85.4922 75.6875 84.6172 74.9688 83.9141 74.0938L87.0312 69.7812C87.75 70.5938 88.6094 71.25 89.6094 71.75C90.6094 72.2656 91.75 72.5234 93.0312 72.5234C94.2031 72.5234 95.1953 72.3125 96.0078 71.8906C96.8203 71.4688 97.4375 70.8516 97.8594 70.0391C98.2969 69.2266 98.5156 68.2422 98.5156 67.0859V48.5703L99.2188 42.6406ZM82.2734 55.625V55.1328C82.2734 53.2109 82.5078 51.4609 82.9766 49.8828C83.4453 48.2891 84.125 46.9219 85.0156 45.7812C85.9219 44.625 87.0078 43.7344 88.2734 43.1094C89.5547 42.4844 90.9922 42.1719 92.5859 42.1719C94.3047 42.1719 95.7266 42.5 96.8516 43.1562C97.9766 43.7969 98.8906 44.7031 99.5938 45.875C100.297 47.0312 100.852 48.3984 101.258 49.9766C101.664 51.5391 101.992 53.2344 102.242 55.0625V55.9062C101.992 57.6562 101.633 59.2891 101.164 60.8047C100.695 62.3203 100.086 63.6562 99.3359 64.8125C98.5859 65.9531 97.6484 66.8516 96.5234 67.5078C95.4141 68.1484 94.0859 68.4688 92.5391 68.4688C90.9609 68.4688 89.5391 68.1484 88.2734 67.5078C87.0078 66.8672 85.9219 65.9688 85.0156 64.8125C84.125 63.6562 83.4453 62.2969 82.9766 60.7344C82.5078 59.1719 82.2734 57.4688 82.2734 55.625ZM89.5859 55.1328V55.625C89.5859 56.625 89.6797 57.5547 89.8672 58.4141C90.0703 59.2734 90.3672 60.0312 90.7578 60.6875C91.1641 61.3438 91.6641 61.8594 92.2578 62.2344C92.8672 62.5938 93.5781 62.7734 94.3906 62.7734C95.5781 62.7734 96.5391 62.5234 97.2734 62.0234C98.0234 61.5078 98.5703 60.7969 98.9141 59.8906C99.2734 58.9844 99.4609 57.9297 99.4766 56.7266V54.2656C99.4766 53.2656 99.375 52.3672 99.1719 51.5703C98.9688 50.7734 98.6641 50.1016 98.2578 49.5547C97.8672 49.0078 97.3516 48.5938 96.7109 48.3125C96.0859 48.0156 95.3281 47.8672 94.4375 47.8672C93.6406 47.8672 92.9375 48.0547 92.3281 48.4297C91.7188 48.7891 91.2109 49.2969 90.8047 49.9531C90.3984 50.6094 90.0938 51.3828 89.8906 52.2734C89.6875 53.1484 89.5859 54.1016 89.5859 55.1328ZM122.703 68.4688C120.688 68.4688 118.883 68.1484 117.289 67.5078C115.695 66.8672 114.344 65.9844 113.234 64.8594C112.141 63.7188 111.305 62.4062 110.727 60.9219C110.148 59.4375 109.859 57.8516 109.859 56.1641V55.2734C109.859 53.3828 110.125 51.6406 110.656 50.0469C111.188 48.4531 111.961 47.0703 112.977 45.8984C114.008 44.7109 115.273 43.7969 116.773 43.1562C118.273 42.5 119.984 42.1719 121.906 42.1719C123.703 42.1719 125.305 42.4688 126.711 43.0625C128.117 43.6406 129.305 44.4766 130.273 45.5703C131.242 46.6484 131.977 47.9531 132.477 49.4844C132.992 51 133.25 52.7031 133.25 54.5938V57.5938H112.812V52.8828H126.078V52.3203C126.078 51.4297 125.914 50.6484 125.586 49.9766C125.273 49.3047 124.805 48.7891 124.18 48.4297C123.57 48.0547 122.797 47.8672 121.859 47.8672C120.969 47.8672 120.227 48.0547 119.633 48.4297C119.039 48.8047 118.562 49.3359 118.203 50.0234C117.859 50.6953 117.609 51.4844 117.453 52.3906C117.297 53.2812 117.219 54.2422 117.219 55.2734V56.1641C117.219 57.1484 117.352 58.0469 117.617 58.8594C117.883 59.6719 118.273 60.3672 118.789 60.9453C119.305 61.5234 119.93 61.9766 120.664 62.3047C121.398 62.6328 122.234 62.7969 123.172 62.7969C124.328 62.7969 125.43 62.5781 126.477 62.1406C127.523 61.6875 128.43 60.9844 129.195 60.0312L132.617 63.9453C132.102 64.6953 131.375 65.4219 130.438 66.125C129.516 66.8125 128.406 67.375 127.109 67.8125C125.812 68.25 124.344 68.4688 122.703 68.4688ZM151.578 62.3281V32H158.938V68H152.328L151.578 62.3281ZM135.781 55.625V55.1328C135.781 53.2109 135.992 51.4609 136.414 49.8828C136.852 48.2891 137.484 46.9219 138.312 45.7812C139.156 44.625 140.195 43.7344 141.43 43.1094C142.664 42.4844 144.078 42.1719 145.672 42.1719C147.141 42.1719 148.422 42.5 149.516 43.1562C150.609 43.7969 151.539 44.7031 152.305 45.875C153.086 47.0312 153.719 48.3984 154.203 49.9766C154.688 51.5391 155.055 53.2344 155.305 55.0625V55.9062C155.07 57.6562 154.703 59.2891 154.203 60.8047C153.719 62.3203 153.086 63.6562 152.305 64.8125C151.539 65.9531 150.602 66.8516 149.492 67.5078C148.398 68.1484 147.109 68.4688 145.625 68.4688C144.031 68.4688 142.617 68.1484 141.383 67.5078C140.164 66.8672 139.141 65.9688 138.312 64.8125C137.484 63.6562 136.852 62.2969 136.414 60.7344C135.992 59.1719 135.781 57.4688 135.781 55.625ZM143.094 55.1328V55.625C143.094 56.625 143.164 57.5547 143.305 58.4141C143.461 59.2734 143.711 60.0312 144.055 60.6875C144.398 61.3438 144.852 61.8594 145.414 62.2344C145.977 62.5938 146.664 62.7734 147.477 62.7734C148.57 62.7734 149.469 62.5234 150.172 62.0234C150.875 61.5078 151.406 60.7969 151.766 59.8906C152.125 58.9844 152.312 57.9297 152.328 56.7266V54.2656C152.328 53.2656 152.227 52.3672 152.023 51.5703C151.82 50.7734 151.516 50.1016 151.109 49.5547C150.719 49.0078 150.227 48.5938 149.633 48.3125C149.039 48.0156 148.336 47.8672 147.523 47.8672C146.727 47.8672 146.047 48.0547 145.484 48.4297C144.922 48.7891 144.461 49.2969 144.102 49.9531C143.758 50.6094 143.5 51.3828 143.328 52.2734C143.172 53.1484 143.094 54.1016 143.094 55.1328ZM183.242 60.9453L188.211 42.6406H192.828L191.258 50.7969L186.289 68H182.516L183.242 60.9453ZM180.969 42.6406L184.297 60.875L184.648 68H180.148L173.914 42.6406H180.969ZM197.328 60.5234L200.633 42.6406H207.688L201.5 68H197L197.328 60.5234ZM193.391 42.6406L198.406 60.8516L199.133 68H195.312L190.391 50.8203L188.891 42.6406H193.391ZM218.539 42.6406V68H211.203V42.6406H218.539ZM210.758 36.0781C210.758 35.0156 211.133 34.1484 211.883 33.4766C212.633 32.7891 213.617 32.4453 214.836 32.4453C216.055 32.4453 217.039 32.7891 217.789 33.4766C218.555 34.1484 218.938 35.0156 218.938 36.0781C218.938 37.125 218.555 37.9922 217.789 38.6797C217.039 39.3516 216.055 39.6875 214.836 39.6875C213.617 39.6875 212.633 39.3516 211.883 38.6797C211.133 37.9922 210.758 37.125 210.758 36.0781ZM236.703 42.6406V47.7734H221.656V42.6406H236.703ZM225.102 36.3594H232.438V60.0547C232.438 60.7578 232.523 61.2969 232.695 61.6719C232.867 62.0469 233.148 62.3125 233.539 62.4688C233.93 62.6094 234.43 62.6797 235.039 62.6797C235.477 62.6797 235.852 62.6641 236.164 62.6328C236.477 62.6016 236.766 62.5625 237.031 62.5156V67.8125C236.406 68.0156 235.742 68.1719 235.039 68.2812C234.336 68.4062 233.57 68.4688 232.742 68.4688C231.164 68.4688 229.797 68.2109 228.641 67.6953C227.5 67.1797 226.625 66.3672 226.016 65.2578C225.406 64.1328 225.102 62.6719 225.102 60.875V36.3594ZM247.367 32V68H240.055V32H247.367ZM246.406 54.4297L244.578 54.4766C244.578 52.6953 244.797 51.0625 245.234 49.5781C245.688 48.0781 246.328 46.7734 247.156 45.6641C247.984 44.5547 248.977 43.6953 250.133 43.0859C251.305 42.4766 252.594 42.1719 254 42.1719C255.25 42.1719 256.391 42.3516 257.422 42.7109C258.453 43.0703 259.344 43.6406 260.094 44.4219C260.844 45.2031 261.422 46.2266 261.828 47.4922C262.234 48.7578 262.438 50.2969 262.438 52.1094V68H255.078V52.0625C255.078 50.9844 254.922 50.1406 254.609 49.5312C254.312 48.9219 253.875 48.4922 253.297 48.2422C252.734 47.9922 252.047 47.8672 251.234 47.8672C250.281 47.8672 249.492 48.0391 248.867 48.3828C248.242 48.7109 247.75 49.1719 247.391 49.7656C247.031 50.3594 246.773 51.0547 246.617 51.8516C246.477 52.6484 246.406 53.5078 246.406 54.4297Z" fill="white"/>
</svg>
