<svg width="366" height="104" viewBox="0 0 366 104" fill="none" xmlns="http://www.w3.org/2000/svg">
<path d="M295.336 85.3077L266.423 48.6199L280.048 26.5824C293.732 23.602 322 17.672 325.599 17.7949C329.198 17.9178 344.278 27.4712 351.368 32.2325L352.077 54.4416L338.091 82.5502L295.336 85.3077Z" fill="black"/>
<path d="M311.05 0C281.214 0 257 23.0787 257 51.515C257 79.9513 281.214 103.03 311.05 103.03C340.885 103.03 365.099 79.9513 365.099 51.515C365.099 23.0787 340.885 0 311.05 0ZM329.535 75.1089C328.724 76.1907 327.481 76.7059 326.238 76.7059C325.427 76.7059 324.616 76.4483 323.859 75.9847C315.536 70.318 304.888 69.0816 295.375 72.6362C293.321 73.4089 290.943 72.4301 290.132 70.4725C289.322 68.4635 290.349 66.2483 292.403 65.4756C304.51 60.8908 318.022 62.4877 328.562 69.6998C330.454 70.9877 330.832 73.4089 329.535 75.1089ZM335.48 60.7362C334.669 61.818 333.426 62.3332 332.183 62.3332C331.372 62.3332 330.562 62.0756 329.805 61.612C318.346 53.7817 303.699 52.0817 290.565 57.0271C288.511 57.7998 286.133 56.8211 285.322 54.8635C284.511 52.8544 285.538 50.6393 287.592 49.8665C303.267 43.9423 320.833 46.0029 334.507 55.3786C336.345 56.615 336.777 59.0362 335.48 60.7362ZM343.966 46.9302C343.155 48.012 341.912 48.5271 340.669 48.5271C339.858 48.5271 339.047 48.2696 338.291 47.8059C322.184 36.7817 301.537 34.3605 283.16 41.3666C281.052 42.1393 278.728 41.1604 277.917 39.2029C277.106 37.2453 278.133 34.9787 280.187 34.206C301.159 26.2727 324.67 29.003 343.047 41.5726C344.885 42.7575 345.317 45.1787 343.966 46.9302Z" fill="#22F241"/>
<path d="M25.0938 62.0938V68H7.86719V62.0938H25.0938ZM10.4688 33.875V68H2.82812V33.875H10.4688ZM27.4141 55.5781V55.0859C27.4141 53.2266 27.6797 51.5156 28.2109 49.9531C28.7422 48.375 29.5234 47.0078 30.5547 45.8516C31.5859 44.6953 32.8516 43.7969 34.3516 43.1562C35.8516 42.5 37.5703 42.1719 39.5078 42.1719C41.4766 42.1719 43.2109 42.5 44.7109 43.1562C46.2266 43.7969 47.5 44.6953 48.5312 45.8516C49.5625 47.0078 50.3438 48.375 50.875 49.9531C51.4062 51.5156 51.6719 53.2266 51.6719 55.0859V55.5781C51.6719 57.4219 51.4062 59.1328 50.875 60.7109C50.3438 62.2734 49.5625 63.6406 48.5312 64.8125C47.5 65.9688 46.2344 66.8672 44.7344 67.5078C43.2344 68.1484 41.5078 68.4688 39.5547 68.4688C37.6172 68.4688 35.8906 68.1484 34.375 67.5078C32.8594 66.8672 31.5859 65.9688 30.5547 64.8125C29.5234 63.6406 28.7422 62.2734 28.2109 60.7109C27.6797 59.1328 27.4141 57.4219 27.4141 55.5781ZM34.75 55.0859V55.5781C34.75 56.5781 34.8281 57.5156 34.9844 58.3906C35.1562 59.2656 35.4297 60.0312 35.8047 60.6875C36.1797 61.3438 36.6719 61.8594 37.2812 62.2344C37.9062 62.5938 38.6641 62.7734 39.5547 62.7734C40.4453 62.7734 41.1953 62.5938 41.8047 62.2344C42.4141 61.8594 42.9062 61.3438 43.2812 60.6875C43.6562 60.0312 43.9219 59.2656 44.0781 58.3906C44.25 57.5156 44.3359 56.5781 44.3359 55.5781V55.0859C44.3359 54.1016 44.25 53.1797 44.0781 52.3203C43.9219 51.4453 43.6562 50.6719 43.2812 50C42.9062 49.3281 42.4062 48.8047 41.7812 48.4297C41.1719 48.0547 40.4141 47.8672 39.5078 47.8672C38.6328 47.8672 37.8906 48.0547 37.2812 48.4297C36.6719 48.8047 36.1797 49.3281 35.8047 50C35.4297 50.6719 35.1562 51.4453 34.9844 52.3203C34.8281 53.1797 34.75 54.1016 34.75 55.0859ZM71.5 42.6406H78.1562V67.0859C78.1562 69.4141 77.625 71.3906 76.5625 73.0156C75.5156 74.6406 74.0547 75.875 72.1797 76.7188C70.3047 77.5625 68.1094 77.9844 65.5938 77.9844C64.5 77.9844 63.3594 77.8359 62.1719 77.5391C60.9844 77.2578 59.8672 76.8281 58.8203 76.25C57.7734 75.6875 56.8984 74.9688 56.1953 74.0938L59.3125 69.7812C60.0312 70.5938 60.8906 71.25 61.8906 71.75C62.8906 72.2656 64.0312 72.5234 65.3125 72.5234C66.4844 72.5234 67.4766 72.3125 68.2891 71.8906C69.1016 71.4688 69.7188 70.8516 70.1406 70.0391C70.5781 69.2266 70.7969 68.2422 70.7969 67.0859V48.5703L71.5 42.6406ZM54.5547 55.625V55.1328C54.5547 53.2109 54.7891 51.4609 55.2578 49.8828C55.7266 48.2891 56.4062 46.9219 57.2969 45.7812C58.2031 44.625 59.2891 43.7344 60.5547 43.1094C61.8359 42.4844 63.2734 42.1719 64.8672 42.1719C66.5859 42.1719 68.0078 42.5 69.1328 43.1562C70.2578 43.7969 71.1719 44.7031 71.875 45.875C72.5781 47.0312 73.1328 48.3984 73.5391 49.9766C73.9453 51.5391 74.2734 53.2344 74.5234 55.0625V55.9062C74.2734 57.6562 73.9141 59.2891 73.4453 60.8047C72.9766 62.3203 72.3672 63.6562 71.6172 64.8125C70.8672 65.9531 69.9297 66.8516 68.8047 67.5078C67.6953 68.1484 66.3672 68.4688 64.8203 68.4688C63.2422 68.4688 61.8203 68.1484 60.5547 67.5078C59.2891 66.8672 58.2031 65.9688 57.2969 64.8125C56.4062 63.6562 55.7266 62.2969 55.2578 60.7344C54.7891 59.1719 54.5547 57.4688 54.5547 55.625ZM61.8672 55.1328V55.625C61.8672 56.625 61.9609 57.5547 62.1484 58.4141C62.3516 59.2734 62.6484 60.0312 63.0391 60.6875C63.4453 61.3438 63.9453 61.8594 64.5391 62.2344C65.1484 62.5938 65.8594 62.7734 66.6719 62.7734C67.8594 62.7734 68.8203 62.5234 69.5547 62.0234C70.3047 61.5078 70.8516 60.7969 71.1953 59.8906C71.5547 58.9844 71.7422 57.9297 71.7578 56.7266V54.2656C71.7578 53.2656 71.6562 52.3672 71.4531 51.5703C71.25 50.7734 70.9453 50.1016 70.5391 49.5547C70.1484 49.0078 69.6328 48.5938 68.9922 48.3125C68.3672 48.0156 67.6094 47.8672 66.7188 47.8672C65.9219 47.8672 65.2188 48.0547 64.6094 48.4297C64 48.7891 63.4922 49.2969 63.0859 49.9531C62.6797 50.6094 62.375 51.3828 62.1719 52.2734C61.9688 53.1484 61.8672 54.1016 61.8672 55.1328ZM90.7422 42.6406V68H83.4062V42.6406H90.7422ZM82.9609 36.0781C82.9609 35.0156 83.3359 34.1484 84.0859 33.4766C84.8359 32.7891 85.8203 32.4453 87.0391 32.4453C88.2578 32.4453 89.2422 32.7891 89.9922 33.4766C90.7578 34.1484 91.1406 35.0156 91.1406 36.0781C91.1406 37.125 90.7578 37.9922 89.9922 38.6797C89.2422 39.3516 88.2578 39.6875 87.0391 39.6875C85.8203 39.6875 84.8359 39.3516 84.0859 38.6797C83.3359 37.9922 82.9609 37.125 82.9609 36.0781ZM103.188 48.0547V68H95.8516V42.6406H102.742L103.188 48.0547ZM102.227 54.4297L100.398 54.4766C100.398 52.5703 100.633 50.8594 101.102 49.3438C101.57 47.8281 102.234 46.5391 103.094 45.4766C103.969 44.3984 105.008 43.5781 106.211 43.0156C107.43 42.4531 108.773 42.1719 110.242 42.1719C111.43 42.1719 112.516 42.3438 113.5 42.6875C114.484 43.0312 115.328 43.5859 116.031 44.3516C116.75 45.1016 117.297 46.1016 117.672 47.3516C118.047 48.5859 118.234 50.1094 118.234 51.9219V68H110.875V51.8984C110.875 50.8359 110.727 50.0156 110.43 49.4375C110.133 48.8594 109.695 48.4531 109.117 48.2188C108.555 47.9844 107.867 47.8672 107.055 47.8672C106.195 47.8672 105.461 48.0391 104.852 48.3828C104.242 48.7109 103.742 49.1719 103.352 49.7656C102.961 50.3594 102.672 51.0547 102.484 51.8516C102.312 52.6484 102.227 53.5078 102.227 54.4297ZM142.445 60.9453L147.414 42.6406H152.031L150.461 50.7969L145.492 68H141.719L142.445 60.9453ZM140.172 42.6406L143.5 60.875L143.852 68H139.352L133.117 42.6406H140.172ZM156.531 60.5234L159.836 42.6406H166.891L160.703 68H156.203L156.531 60.5234ZM152.594 42.6406L157.609 60.8516L158.336 68H154.516L149.594 50.8203L148.094 42.6406H152.594ZM177.742 42.6406V68H170.406V42.6406H177.742ZM169.961 36.0781C169.961 35.0156 170.336 34.1484 171.086 33.4766C171.836 32.7891 172.82 32.4453 174.039 32.4453C175.258 32.4453 176.242 32.7891 176.992 33.4766C177.758 34.1484 178.141 35.0156 178.141 36.0781C178.141 37.125 177.758 37.9922 176.992 38.6797C176.242 39.3516 175.258 39.6875 174.039 39.6875C172.82 39.6875 171.836 39.3516 171.086 38.6797C170.336 37.9922 169.961 37.125 169.961 36.0781ZM195.906 42.6406V47.7734H180.859V42.6406H195.906ZM184.305 36.3594H191.641V60.0547C191.641 60.7578 191.727 61.2969 191.898 61.6719C192.07 62.0469 192.352 62.3125 192.742 62.4688C193.133 62.6094 193.633 62.6797 194.242 62.6797C194.68 62.6797 195.055 62.6641 195.367 62.6328C195.68 62.6016 195.969 62.5625 196.234 62.5156V67.8125C195.609 68.0156 194.945 68.1719 194.242 68.2812C193.539 68.4062 192.773 68.4688 191.945 68.4688C190.367 68.4688 189 68.2109 187.844 67.6953C186.703 67.1797 185.828 66.3672 185.219 65.2578C184.609 64.1328 184.305 62.6719 184.305 60.875V36.3594ZM206.57 32V68H199.258V32H206.57ZM205.609 54.4297L203.781 54.4766C203.781 52.6953 204 51.0625 204.438 49.5781C204.891 48.0781 205.531 46.7734 206.359 45.6641C207.188 44.5547 208.18 43.6953 209.336 43.0859C210.508 42.4766 211.797 42.1719 213.203 42.1719C214.453 42.1719 215.594 42.3516 216.625 42.7109C217.656 43.0703 218.547 43.6406 219.297 44.4219C220.047 45.2031 220.625 46.2266 221.031 47.4922C221.438 48.7578 221.641 50.2969 221.641 52.1094V68H214.281V52.0625C214.281 50.9844 214.125 50.1406 213.812 49.5312C213.516 48.9219 213.078 48.4922 212.5 48.2422C211.938 47.9922 211.25 47.8672 210.438 47.8672C209.484 47.8672 208.695 48.0391 208.07 48.3828C207.445 48.7109 206.953 49.1719 206.594 49.7656C206.234 50.3594 205.977 51.0547 205.82 51.8516C205.68 52.6484 205.609 53.5078 205.609 54.4297Z" fill="white"/>
</svg>
