<svg width="337" height="321" viewBox="0 0 337 321" fill="none" xmlns="http://www.w3.org/2000/svg">
<path d="M120.029 265.627L30.2206 151.668L72.5433 83.2158C115.048 73.9583 202.851 55.5387 214.031 55.9205C225.21 56.3022 272.052 85.9767 294.076 100.766L296.278 169.752L252.834 257.062L120.029 265.627Z" fill="black"/>
<path d="M168.839 0.646057C76.1648 0.646057 0.950867 72.3328 0.950867 160.661C0.950867 248.989 76.1648 320.676 168.839 320.676C261.513 320.676 336.727 248.989 336.727 160.661C336.727 72.3328 261.513 0.646057 168.839 0.646057ZM226.257 233.948C223.738 237.308 219.877 238.908 216.016 238.908C213.497 238.908 210.979 238.108 208.629 236.668C182.774 219.067 149.7 215.226 120.152 226.267C113.772 228.667 106.385 225.627 103.866 219.547C101.348 213.306 104.538 206.425 110.918 204.025C148.525 189.784 190.497 194.744 223.235 217.146C229.111 221.147 230.286 228.667 226.257 233.948ZM244.724 189.304C242.206 192.664 238.345 194.264 234.483 194.264C231.965 194.264 229.447 193.464 227.096 192.024C191.504 167.702 146.006 162.421 105.21 177.783C98.8298 180.183 91.4427 177.143 88.9244 171.062C86.4061 164.821 89.5958 157.941 95.9756 155.541C144.663 137.139 199.227 143.539 241.702 172.662C247.411 176.503 248.754 184.023 244.724 189.304ZM271.083 146.42C268.565 149.78 264.703 151.38 260.842 151.38C258.323 151.38 255.805 150.58 253.455 149.14C203.424 114.897 139.291 107.376 82.2087 129.138C75.6611 131.538 68.4419 128.498 65.9236 122.417C63.4053 116.337 66.595 109.296 72.9747 106.896C138.115 82.2539 211.147 90.7347 268.229 129.778C273.937 133.459 275.28 140.979 271.083 146.42Z" fill="#22F241"/>
</svg>
