<svg width="465" height="129" viewBox="0 0 465 129" fill="none" xmlns="http://www.w3.org/2000/svg">
<rect x="2.5" y="2.5" width="460" height="124" rx="17.5" fill="white" stroke="black" stroke-width="5"/>
<path d="M348.336 98.3077L319.423 61.6199L333.048 39.5824C346.732 36.602 375 30.672 378.599 30.7949C382.198 30.9178 397.278 40.4712 404.368 45.2325L405.077 67.4416L391.091 95.5502L348.336 98.3077Z" fill="black"/>
<path d="M364.05 13C334.214 13 310 36.0787 310 64.515C310 92.9513 334.214 116.03 364.05 116.03C393.885 116.03 418.099 92.9513 418.099 64.515C418.099 36.0787 393.885 13 364.05 13ZM382.535 88.1089C381.724 89.1907 380.481 89.7059 379.238 89.7059C378.427 89.7059 377.616 89.4483 376.859 88.9847C368.536 83.318 357.888 82.0816 348.375 85.6362C346.321 86.4089 343.943 85.4301 343.132 83.4725C342.322 81.4635 343.349 79.2483 345.403 78.4756C357.51 73.8908 371.022 75.4877 381.562 82.6998C383.454 83.9877 383.832 86.4089 382.535 88.1089ZM388.48 73.7362C387.669 74.818 386.426 75.3332 385.183 75.3332C384.372 75.3332 383.562 75.0756 382.805 74.612C371.346 66.7817 356.699 65.0817 343.565 70.0271C341.511 70.7998 339.133 69.8211 338.322 67.8635C337.511 65.8544 338.538 63.6393 340.592 62.8665C356.267 56.9423 373.833 59.0029 387.507 68.3786C389.345 69.615 389.777 72.0362 388.48 73.7362ZM396.966 59.9302C396.155 61.012 394.912 61.5271 393.669 61.5271C392.858 61.5271 392.047 61.2696 391.291 60.8059C375.184 49.7817 354.537 47.3605 336.16 54.3666C334.052 55.1393 331.728 54.1604 330.917 52.2029C330.106 50.2453 331.133 47.9787 333.187 47.206C354.159 39.2727 377.67 42.003 396.047 54.5726C397.885 55.7575 398.317 58.1787 396.966 59.9302Z" fill="#22F241"/>
<path d="M72.1172 75.0938V81H54.8906V75.0938H72.1172ZM57.4922 46.875V81H49.8516V46.875H57.4922ZM74.4375 68.5781V68.0859C74.4375 66.2266 74.7031 64.5156 75.2344 62.9531C75.7656 61.375 76.5469 60.0078 77.5781 58.8516C78.6094 57.6953 79.875 56.7969 81.375 56.1562C82.875 55.5 84.5938 55.1719 86.5312 55.1719C88.5 55.1719 90.2344 55.5 91.7344 56.1562C93.25 56.7969 94.5234 57.6953 95.5547 58.8516C96.5859 60.0078 97.3672 61.375 97.8984 62.9531C98.4297 64.5156 98.6953 66.2266 98.6953 68.0859V68.5781C98.6953 70.4219 98.4297 72.1328 97.8984 73.7109C97.3672 75.2734 96.5859 76.6406 95.5547 77.8125C94.5234 78.9688 93.2578 79.8672 91.7578 80.5078C90.2578 81.1484 88.5312 81.4688 86.5781 81.4688C84.6406 81.4688 82.9141 81.1484 81.3984 80.5078C79.8828 79.8672 78.6094 78.9688 77.5781 77.8125C76.5469 76.6406 75.7656 75.2734 75.2344 73.7109C74.7031 72.1328 74.4375 70.4219 74.4375 68.5781ZM81.7734 68.0859V68.5781C81.7734 69.5781 81.8516 70.5156 82.0078 71.3906C82.1797 72.2656 82.4531 73.0312 82.8281 73.6875C83.2031 74.3438 83.6953 74.8594 84.3047 75.2344C84.9297 75.5938 85.6875 75.7734 86.5781 75.7734C87.4688 75.7734 88.2188 75.5938 88.8281 75.2344C89.4375 74.8594 89.9297 74.3438 90.3047 73.6875C90.6797 73.0312 90.9453 72.2656 91.1016 71.3906C91.2734 70.5156 91.3594 69.5781 91.3594 68.5781V68.0859C91.3594 67.1016 91.2734 66.1797 91.1016 65.3203C90.9453 64.4453 90.6797 63.6719 90.3047 63C89.9297 62.3281 89.4297 61.8047 88.8047 61.4297C88.1953 61.0547 87.4375 60.8672 86.5312 60.8672C85.6562 60.8672 84.9141 61.0547 84.3047 61.4297C83.6953 61.8047 83.2031 62.3281 82.8281 63C82.4531 63.6719 82.1797 64.4453 82.0078 65.3203C81.8516 66.1797 81.7734 67.1016 81.7734 68.0859ZM118.523 55.6406H125.18V80.0859C125.18 82.4141 124.648 84.3906 123.586 86.0156C122.539 87.6406 121.078 88.875 119.203 89.7188C117.328 90.5625 115.133 90.9844 112.617 90.9844C111.523 90.9844 110.383 90.8359 109.195 90.5391C108.008 90.2578 106.891 89.8281 105.844 89.25C104.797 88.6875 103.922 87.9688 103.219 87.0938L106.336 82.7812C107.055 83.5938 107.914 84.25 108.914 84.75C109.914 85.2656 111.055 85.5234 112.336 85.5234C113.508 85.5234 114.5 85.3125 115.312 84.8906C116.125 84.4688 116.742 83.8516 117.164 83.0391C117.602 82.2266 117.82 81.2422 117.82 80.0859V61.5703L118.523 55.6406ZM101.578 68.625V68.1328C101.578 66.2109 101.812 64.4609 102.281 62.8828C102.75 61.2891 103.43 59.9219 104.32 58.7812C105.227 57.625 106.312 56.7344 107.578 56.1094C108.859 55.4844 110.297 55.1719 111.891 55.1719C113.609 55.1719 115.031 55.5 116.156 56.1562C117.281 56.7969 118.195 57.7031 118.898 58.875C119.602 60.0312 120.156 61.3984 120.562 62.9766C120.969 64.5391 121.297 66.2344 121.547 68.0625V68.9062C121.297 70.6562 120.938 72.2891 120.469 73.8047C120 75.3203 119.391 76.6562 118.641 77.8125C117.891 78.9531 116.953 79.8516 115.828 80.5078C114.719 81.1484 113.391 81.4688 111.844 81.4688C110.266 81.4688 108.844 81.1484 107.578 80.5078C106.312 79.8672 105.227 78.9688 104.32 77.8125C103.43 76.6562 102.75 75.2969 102.281 73.7344C101.812 72.1719 101.578 70.4688 101.578 68.625ZM108.891 68.1328V68.625C108.891 69.625 108.984 70.5547 109.172 71.4141C109.375 72.2734 109.672 73.0312 110.062 73.6875C110.469 74.3438 110.969 74.8594 111.562 75.2344C112.172 75.5938 112.883 75.7734 113.695 75.7734C114.883 75.7734 115.844 75.5234 116.578 75.0234C117.328 74.5078 117.875 73.7969 118.219 72.8906C118.578 71.9844 118.766 70.9297 118.781 69.7266V67.2656C118.781 66.2656 118.68 65.3672 118.477 64.5703C118.273 63.7734 117.969 63.1016 117.562 62.5547C117.172 62.0078 116.656 61.5938 116.016 61.3125C115.391 61.0156 114.633 60.8672 113.742 60.8672C112.945 60.8672 112.242 61.0547 111.633 61.4297C111.023 61.7891 110.516 62.2969 110.109 62.9531C109.703 63.6094 109.398 64.3828 109.195 65.2734C108.992 66.1484 108.891 67.1016 108.891 68.1328ZM149.719 55.6406V81H142.383V55.6406H149.719ZM141.938 49.0781C141.938 48.0156 142.312 47.1484 143.062 46.4766C143.812 45.7891 144.797 45.4453 146.016 45.4453C147.234 45.4453 148.219 45.7891 148.969 46.4766C149.734 47.1484 150.117 48.0156 150.117 49.0781C150.117 50.125 149.734 50.9922 148.969 51.6797C148.219 52.3516 147.234 52.6875 146.016 52.6875C144.797 52.6875 143.812 52.3516 143.062 51.6797C142.312 50.9922 141.938 50.125 141.938 49.0781ZM162.164 61.0547V81H154.828V55.6406H161.719L162.164 61.0547ZM161.203 67.4297L159.375 67.4766C159.375 65.5703 159.609 63.8594 160.078 62.3438C160.547 60.8281 161.211 59.5391 162.07 58.4766C162.945 57.3984 163.984 56.5781 165.188 56.0156C166.406 55.4531 167.75 55.1719 169.219 55.1719C170.406 55.1719 171.492 55.3438 172.477 55.6875C173.461 56.0312 174.305 56.5859 175.008 57.3516C175.727 58.1016 176.273 59.1016 176.648 60.3516C177.023 61.5859 177.211 63.1094 177.211 64.9219V81H169.852V64.8984C169.852 63.8359 169.703 63.0156 169.406 62.4375C169.109 61.8594 168.672 61.4531 168.094 61.2188C167.531 60.9844 166.844 60.8672 166.031 60.8672C165.172 60.8672 164.438 61.0391 163.828 61.3828C163.219 61.7109 162.719 62.1719 162.328 62.7656C161.938 63.3594 161.648 64.0547 161.461 64.8516C161.289 65.6484 161.203 66.5078 161.203 67.4297ZM201.422 73.9453L206.391 55.6406H211.008L209.438 63.7969L204.469 81H200.695L201.422 73.9453ZM199.148 55.6406L202.477 73.875L202.828 81H198.328L192.094 55.6406H199.148ZM215.508 73.5234L218.812 55.6406H225.867L219.68 81H215.18L215.508 73.5234ZM211.57 55.6406L216.586 73.8516L217.312 81H213.492L208.57 63.8203L207.07 55.6406H211.57ZM236.719 55.6406V81H229.383V55.6406H236.719ZM228.938 49.0781C228.938 48.0156 229.312 47.1484 230.062 46.4766C230.812 45.7891 231.797 45.4453 233.016 45.4453C234.234 45.4453 235.219 45.7891 235.969 46.4766C236.734 47.1484 237.117 48.0156 237.117 49.0781C237.117 50.125 236.734 50.9922 235.969 51.6797C235.219 52.3516 234.234 52.6875 233.016 52.6875C231.797 52.6875 230.812 52.3516 230.062 51.6797C229.312 50.9922 228.938 50.125 228.938 49.0781ZM254.883 55.6406V60.7734H239.836V55.6406H254.883ZM243.281 49.3594H250.617V73.0547C250.617 73.7578 250.703 74.2969 250.875 74.6719C251.047 75.0469 251.328 75.3125 251.719 75.4688C252.109 75.6094 252.609 75.6797 253.219 75.6797C253.656 75.6797 254.031 75.6641 254.344 75.6328C254.656 75.6016 254.945 75.5625 255.211 75.5156V80.8125C254.586 81.0156 253.922 81.1719 253.219 81.2812C252.516 81.4062 251.75 81.4688 250.922 81.4688C249.344 81.4688 247.977 81.2109 246.82 80.6953C245.68 80.1797 244.805 79.3672 244.195 78.2578C243.586 77.1328 243.281 75.6719 243.281 73.875V49.3594ZM265.547 45V81H258.234V45H265.547ZM264.586 67.4297L262.758 67.4766C262.758 65.6953 262.977 64.0625 263.414 62.5781C263.867 61.0781 264.508 59.7734 265.336 58.6641C266.164 57.5547 267.156 56.6953 268.312 56.0859C269.484 55.4766 270.773 55.1719 272.18 55.1719C273.43 55.1719 274.57 55.3516 275.602 55.7109C276.633 56.0703 277.523 56.6406 278.273 57.4219C279.023 58.2031 279.602 59.2266 280.008 60.4922C280.414 61.7578 280.617 63.2969 280.617 65.1094V81H273.258V65.0625C273.258 63.9844 273.102 63.1406 272.789 62.5312C272.492 61.9219 272.055 61.4922 271.477 61.2422C270.914 60.9922 270.227 60.8672 269.414 60.8672C268.461 60.8672 267.672 61.0391 267.047 61.3828C266.422 61.7109 265.93 62.1719 265.57 62.7656C265.211 63.3594 264.953 64.0547 264.797 64.8516C264.656 65.6484 264.586 66.5078 264.586 67.4297Z" fill="black"/>
</svg>
