<svg xmlns="http://www.w3.org/2000/svg" version="1.1" xmlns:xlink="http://www.w3.org/1999/xlink" xmlns:svgjs="http://svgjs.com/svgjs" width="1080" height="560" preserveAspectRatio="none" viewBox="0 0 1080 560"><g mask="url(&quot;#SvgjsMask4277&quot;)" fill="none"><rect width="1080" height="560" x="0" y="0" fill="rgba(51, 44, 73, 1)"></rect><rect width="163.2" height="163.2" clip-path="url(&quot;#SvgjsClipPath4278&quot;)" x="492.69" y="-58.92" fill="url(#SvgjsPattern4279)" transform="rotate(299.14, 574.29, 22.68)"></rect><path d="M885.45 347.83 L860.5600000000001 305.41999999999996L900.9769505141248 298.6530494858752z" fill="rgba(17, 47, 217, 1)"></path><path d="M926.9 445.52L936.89 453.53 931.26 465.04 941.25 473.05 935.63 484.55 945.62 492.57 940 504.07" stroke="rgba(202, 141, 242, 1)" stroke-width="1.08" stroke-dasharray="4, 4"></path><path d="M266.94 97.51L259.43 107.88 247.67 102.83 240.15 113.2 228.39 108.15 220.88 118.52 209.11 113.47M264.82 89.79L257.3 100.17 245.54 95.12 238.03 105.49 226.26 100.44 218.75 110.81 206.98 105.76M262.69 82.08L255.18 92.45 243.41 87.4 235.9 97.78 224.13 92.73 216.62 103.1 204.85 98.05" stroke="rgba(4, 217, 79, 1)" stroke-width="2.95"></path><path d="M832.41 407.76 L841.13 306.15999999999997L906.719484850542 426.90948485054207z" fill="rgba(17, 47, 217, 1)"></path><path d="M856.09 421.48a5.6 5.6 0 1 0-9.9 5.23 5.6 5.6 0 1 0 9.9-5.23zM841.94 428.95a5.6 5.6 0 1 0-9.9 5.23 5.6 5.6 0 1 0 9.9-5.23zM827.8 436.42a5.6 5.6 0 1 0-9.91 5.23 5.6 5.6 0 1 0 9.91-5.23zM813.65 443.89a5.6 5.6 0 1 0-9.91 5.23 5.6 5.6 0 1 0 9.91-5.23zM876.92 392.38a5.6 5.6 0 1 0-9.91 5.23 5.6 5.6 0 1 0 9.91-5.23zM862.77 399.86a5.6 5.6 0 1 0-9.91 5.23 5.6 5.6 0 1 0 9.91-5.23zM848.62 407.33a5.6 5.6 0 1 0-9.9 5.23 5.6 5.6 0 1 0 9.9-5.23zM834.47 414.8a5.6 5.6 0 1 0-9.9 5.23 5.6 5.6 0 1 0 9.9-5.23z" fill="rgba(34, 242, 65, 1)"></path><circle r="46.666666666666664" cx="682.5" cy="549.49" stroke="rgba(4, 217, 79, 1)" stroke-width="1" stroke-dasharray="3, 3"></circle><path d="M236.23000000000002 441.56 L205.31 452.33L238.17502948148 464.35002948147996z" fill="rgba(34, 242, 65, 1)"></path><circle r="48.490030677195584" cx="90.04" cy="286.34" fill="rgba(34, 242, 65, 1)"></circle></g><defs><mask id="SvgjsMask4277"><rect width="1080" height="560" fill="#ffffff"></rect></mask><pattern x="0" y="0" width="163.2" height="13.6" patternUnits="userSpaceOnUse" id="SvgjsPattern4279"><rect width="163.2" height="6.8" x="0" y="0" fill="rgba(21, 78, 191, 1)"></rect><rect width="163.2" height="6.8" x="0" y="6.8" fill="rgba(0, 0, 0, 0)"></rect></pattern><clipPath id="SvgjsClipPath4278"><circle r="40.8" cx="574.29" cy="22.68"></circle></clipPath></defs></svg>