<svg width="1920" height="1080" viewBox="0 0 1920 1080" fill="none" xmlns="http://www.w3.org/2000/svg">
<g clip-path="url(#clip0_1_2)">
<rect width="1920" height="1080" fill="#65ECC3"/>
<g style="mix-blend-mode:soft-light" filter="url(#filter0_b_1_2)">
<path d="M0 517C44.7667 528.667 179.067 587 268.6 587C358.133 587 447.667 517 537.2 517C626.733 517 716.267 587 805.8 587C895.333 587 984.867 517 1074.4 517C1163.93 517 1298.23 575.333 1343 587" stroke="#EA3ECE" stroke-width="3" stroke-linecap="round" stroke-linejoin="round"/>
</g>
<g style="mix-blend-mode:soft-light">
<path d="M1218 545.614C1262.82 557.093 1397.36 614.865 1486.89 614.49C1576.42 614.116 1665.66 543.743 1755.2 543.368C1844.73 542.994 1934.55 612.619 2024.09 612.245C2113.62 611.871 2202.86 541.497 2292.39 541.123C2381.92 540.748 2516.47 598.52 2561.28 609.999" stroke="#EA3ECE" stroke-width="3" stroke-linecap="round" stroke-linejoin="round"/>
</g>
<g filter="url(#filter1_f_1_2)">
<rect x="-169" y="616" width="2506" height="667" fill="#EA3ECE"/>
</g>
<g filter="url(#filter2_f_1_2)">
<ellipse cx="533.95" cy="588.243" rx="137.31" ry="69.9799" transform="rotate(-0.52824 533.95 588.243)" fill="#EA3ECE"/>
</g>
<g filter="url(#filter3_f_1_2)">
<ellipse cx="242.95" cy="649.243" rx="137.31" ry="69.9799" transform="rotate(-0.52824 242.95 649.243)" fill="#EA3ECE"/>
</g>
<g filter="url(#filter4_f_1_2)">
<ellipse cx="1096.95" cy="611.243" rx="137.31" ry="69.9799" transform="rotate(-0.52824 1096.95 611.243)" fill="#EA3ECE"/>
</g>
<g filter="url(#filter5_f_1_2)">
<ellipse cx="805.95" cy="665.243" rx="137.31" ry="69.9799" transform="rotate(-0.52824 805.95 665.243)" fill="#EA3ECE"/>
</g>
<g filter="url(#filter6_f_1_2)">
<ellipse cx="1753.95" cy="623.243" rx="137.31" ry="69.9799" transform="rotate(-0.52824 1753.95 623.243)" fill="#EA3ECE"/>
</g>
<g filter="url(#filter7_f_1_2)">
<ellipse cx="1425.01" cy="721.554" rx="137.31" ry="69.9799" transform="rotate(3.2079 1425.01 721.554)" fill="#EA3ECE"/>
</g>
<g filter="url(#filter8_f_1_2)">
<ellipse cx="960.714" cy="684.026" rx="137.31" ry="69.9799" transform="rotate(-14.9458 960.714 684.026)" fill="#EA3ECE"/>
</g>
<g filter="url(#filter9_f_1_2)">
<ellipse cx="669.074" cy="666.746" rx="137.31" ry="69.9799" transform="rotate(28.3215 669.074 666.746)" fill="#EA3ECE"/>
</g>
<g filter="url(#filter10_f_1_2)">
<ellipse cx="396.292" cy="664.691" rx="137.31" ry="69.9799" transform="rotate(-21.0841 396.292 664.691)" fill="#EA3ECE"/>
</g>
<g filter="url(#filter11_f_1_2)">
<ellipse cx="1642.55" cy="666.177" rx="137.31" ry="69.9799" transform="rotate(-16.5415 1642.55 666.177)" fill="#EA3ECE"/>
</g>
<g filter="url(#filter12_f_1_2)">
<ellipse cx="1260.69" cy="668.579" rx="137.31" ry="69.9799" transform="rotate(13.2452 1260.69 668.579)" fill="#EA3ECE"/>
</g>
<g filter="url(#filter13_f_1_2)">
<ellipse cx="1883.1" cy="703.818" rx="137.31" ry="69.9799" transform="rotate(27.7197 1883.1 703.818)" fill="#EA3ECE"/>
</g>
<g filter="url(#filter14_f_1_2)">
<ellipse cx="61.0414" cy="591.5" rx="137.31" ry="69.9799" transform="rotate(33.7715 61.0414 591.5)" fill="#EA3ECE"/>
</g>
<g filter="url(#filter15_f_1_2)">
<ellipse cx="59.8854" cy="631.575" rx="137.31" ry="69.9799" transform="rotate(23.8793 59.8854 631.575)" fill="#EA3ECE"/>
</g>
</g>
<defs>
<filter id="filter0_b_1_2" x="-201.5" y="315.5" width="1746" height="473.001" filterUnits="userSpaceOnUse" color-interpolation-filters="sRGB">
<feFlood flood-opacity="0" result="BackgroundImageFix"/>
<feGaussianBlur in="BackgroundImageFix" stdDeviation="100"/>
<feComposite in2="SourceAlpha" operator="in" result="effect1_backgroundBlur_1_2"/>
<feBlend mode="normal" in="SourceGraphic" in2="effect1_backgroundBlur_1_2" result="shape"/>
</filter>
<filter id="filter1_f_1_2" x="-359" y="426" width="2886" height="1047" filterUnits="userSpaceOnUse" color-interpolation-filters="sRGB">
<feFlood flood-opacity="0" result="BackgroundImageFix"/>
<feBlend mode="normal" in="SourceGraphic" in2="BackgroundImageFix" result="shape"/>
<feGaussianBlur stdDeviation="95" result="effect1_foregroundBlur_1_2"/>
</filter>
<filter id="filter2_f_1_2" x="206.644" y="328.254" width="654.612" height="519.977" filterUnits="userSpaceOnUse" color-interpolation-filters="sRGB">
<feFlood flood-opacity="0" result="BackgroundImageFix"/>
<feBlend mode="normal" in="SourceGraphic" in2="BackgroundImageFix" result="shape"/>
<feGaussianBlur stdDeviation="95" result="effect1_foregroundBlur_1_2"/>
</filter>
<filter id="filter3_f_1_2" x="-84.3564" y="389.254" width="654.612" height="519.977" filterUnits="userSpaceOnUse" color-interpolation-filters="sRGB">
<feFlood flood-opacity="0" result="BackgroundImageFix"/>
<feBlend mode="normal" in="SourceGraphic" in2="BackgroundImageFix" result="shape"/>
<feGaussianBlur stdDeviation="95" result="effect1_foregroundBlur_1_2"/>
</filter>
<filter id="filter4_f_1_2" x="769.644" y="351.254" width="654.612" height="519.977" filterUnits="userSpaceOnUse" color-interpolation-filters="sRGB">
<feFlood flood-opacity="0" result="BackgroundImageFix"/>
<feBlend mode="normal" in="SourceGraphic" in2="BackgroundImageFix" result="shape"/>
<feGaussianBlur stdDeviation="95" result="effect1_foregroundBlur_1_2"/>
</filter>
<filter id="filter5_f_1_2" x="478.644" y="405.254" width="654.612" height="519.977" filterUnits="userSpaceOnUse" color-interpolation-filters="sRGB">
<feFlood flood-opacity="0" result="BackgroundImageFix"/>
<feBlend mode="normal" in="SourceGraphic" in2="BackgroundImageFix" result="shape"/>
<feGaussianBlur stdDeviation="95" result="effect1_foregroundBlur_1_2"/>
</filter>
<filter id="filter6_f_1_2" x="1426.64" y="363.254" width="654.612" height="519.977" filterUnits="userSpaceOnUse" color-interpolation-filters="sRGB">
<feFlood flood-opacity="0" result="BackgroundImageFix"/>
<feBlend mode="normal" in="SourceGraphic" in2="BackgroundImageFix" result="shape"/>
<feGaussianBlur stdDeviation="95" result="effect1_foregroundBlur_1_2"/>
</filter>
<filter id="filter7_f_1_2" x="1097.86" y="461.256" width="654.305" height="520.595" filterUnits="userSpaceOnUse" color-interpolation-filters="sRGB">
<feFlood flood-opacity="0" result="BackgroundImageFix"/>
<feBlend mode="normal" in="SourceGraphic" in2="BackgroundImageFix" result="shape"/>
<feGaussianBlur stdDeviation="95" result="effect1_foregroundBlur_1_2"/>
</filter>
<filter id="filter8_f_1_2" x="636.81" y="417.685" width="647.807" height="532.682" filterUnits="userSpaceOnUse" color-interpolation-filters="sRGB">
<feFlood flood-opacity="0" result="BackgroundImageFix"/>
<feBlend mode="normal" in="SourceGraphic" in2="BackgroundImageFix" result="shape"/>
<feGaussianBlur stdDeviation="95" result="effect1_foregroundBlur_1_2"/>
</filter>
<filter id="filter9_f_1_2" x="353.692" y="387.088" width="630.765" height="559.316" filterUnits="userSpaceOnUse" color-interpolation-filters="sRGB">
<feFlood flood-opacity="0" result="BackgroundImageFix"/>
<feBlend mode="normal" in="SourceGraphic" in2="BackgroundImageFix" result="shape"/>
<feGaussianBlur stdDeviation="95" result="effect1_foregroundBlur_1_2"/>
</filter>
<filter id="filter10_f_1_2" x="75.6999" y="392.812" width="641.185" height="543.758" filterUnits="userSpaceOnUse" color-interpolation-filters="sRGB">
<feFlood flood-opacity="0" result="BackgroundImageFix"/>
<feBlend mode="normal" in="SourceGraphic" in2="BackgroundImageFix" result="shape"/>
<feGaussianBlur stdDeviation="95" result="effect1_foregroundBlur_1_2"/>
</filter>
<filter id="filter11_f_1_2" x="1319.41" y="398.521" width="646.291" height="535.313" filterUnits="userSpaceOnUse" color-interpolation-filters="sRGB">
<feFlood flood-opacity="0" result="BackgroundImageFix"/>
<feBlend mode="normal" in="SourceGraphic" in2="BackgroundImageFix" result="shape"/>
<feGaussianBlur stdDeviation="95" result="effect1_foregroundBlur_1_2"/>
</filter>
<filter id="filter12_f_1_2" x="936.062" y="403.528" width="649.259" height="530.101" filterUnits="userSpaceOnUse" color-interpolation-filters="sRGB">
<feFlood flood-opacity="0" result="BackgroundImageFix"/>
<feBlend mode="normal" in="SourceGraphic" in2="BackgroundImageFix" result="shape"/>
<feGaussianBlur stdDeviation="95" result="effect1_foregroundBlur_1_2"/>
</filter>
<filter id="filter13_f_1_2" x="1567.24" y="424.841" width="631.732" height="557.954" filterUnits="userSpaceOnUse" color-interpolation-filters="sRGB">
<feFlood flood-opacity="0" result="BackgroundImageFix"/>
<feBlend mode="normal" in="SourceGraphic" in2="BackgroundImageFix" result="shape"/>
<feGaussianBlur stdDeviation="95" result="effect1_foregroundBlur_1_2"/>
</filter>
<filter id="filter14_f_1_2" x="-249.579" y="305.526" width="621.241" height="571.947" filterUnits="userSpaceOnUse" color-interpolation-filters="sRGB">
<feFlood flood-opacity="0" result="BackgroundImageFix"/>
<feBlend mode="normal" in="SourceGraphic" in2="BackgroundImageFix" result="shape"/>
<feGaussianBlur stdDeviation="95" result="effect1_foregroundBlur_1_2"/>
</filter>
<filter id="filter15_f_1_2" x="-258.855" y="356.813" width="637.482" height="549.524" filterUnits="userSpaceOnUse" color-interpolation-filters="sRGB">
<feFlood flood-opacity="0" result="BackgroundImageFix"/>
<feBlend mode="normal" in="SourceGraphic" in2="BackgroundImageFix" result="shape"/>
<feGaussianBlur stdDeviation="95" result="effect1_foregroundBlur_1_2"/>
</filter>
<clipPath id="clip0_1_2">
<rect width="1920" height="1080" fill="white"/>
</clipPath>
</defs>
</svg>
